<svg xmlns="http://www.w3.org/2000/svg" xmlns:xlink="http://www.w3.org/1999/xlink" style="margin:auto;background:#f1f2f3;display:block;z-index:1;position:relative" width="1920" height="1080" preserveAspectRatio="xMidYMid" viewBox="0 0 1920 1080">
<g transform=""><path d="M -100 664.611 C 18.6933 656.359 19.61 657.849 135.56 657.849 S 253.59 654.058 371.11 654.058 S 489.861 665.521 606.67 665.521 S 725.936 654.792 842.22 654.792 S 960.276 654.459 1077.78 654.459 S 1195.98 650.454 1313.33 650.454 S 1432.17 658.732 1548.89 658.732 S 1667.94 655.163 1784.44 655.163 S 1903.04 653.972 2020 653.972 S 2138.77 653.127 2255.56 653.127 L 2020 1080 L -100 1080 Z" fill="#93dbe9" stroke-width="0" transform="translate(8.78184 0)">
  <animate attributeName="d" dur="3.611111111111111s" repeatCount="indefinite" values="M-100 664.35C17.87 653.96 19.23 651.08 135.56 651.08S254.39 649.91 371.11 649.91S490.93 662.94 606.67 662.94S725.58 661.79 842.22 661.79S960.3 660.84 1077.78 660.84S1195.9 655.18 1313.33 655.18S1432.61 661.4 1548.89 661.4S1668.11 658.06 1784.44 658.06S1903.52 668.38 2020 668.38S2138.75 654.75 2255.56 654.75L2020 1080 L-100 1080 Z;M-100 664.68C18.91 656.99 19.71 659.63 135.56 659.63S253.38 655.15 371.11 655.15S489.58 666.2 606.67 666.2S726.03 652.95 842.22 652.95S960.27 652.78 1077.78 652.78S1196 649.21 1313.33 649.21S1432.06 658.03 1548.89 658.03S1667.9 654.4 1784.44 654.4S1902.91 650.18 2020 650.18S2138.77 652.7 2255.56 652.7L2020 1080 L-100 1080 Z;M-100 664.35C17.87 653.96 19.23 651.08 135.56 651.08S254.39 649.91 371.11 649.91S490.93 662.94 606.67 662.94S725.58 661.79 842.22 661.79S960.3 660.84 1077.78 660.84S1195.9 655.18 1313.33 655.18S1432.61 661.4 1548.89 661.4S1668.11 658.06 1784.44 658.06S1903.52 668.38 2020 668.38S2138.75 654.75 2255.56 654.75L2020 1080 L-100 1080 Z"></animate>
  <animateTransform attributeName="transform" type="translate" dur="3.611111111111111s" begin="0s" repeatCount="indefinite" values="0;10;0" calcMode="spline" keySplines="0.3 0 0.7 1;0.3 0 0.7 1"></animateTransform>
</path><path d="M -100 716.41 C 22.0947 714.723 21.2974 719.825 140.7 719.825 S 262.577 726.1 381.4 726.1 S 502.295 718.94 622.1 718.94 S 742.631 714.728 862.79 714.728 S 985.039 715.154 1103.49 715.154 S 1224.66 710.909 1344.19 710.909 S 1465.56 720.407 1584.89 720.407 S 1706.09 717.057 1825.59 717.057 S 1946.42 720.798 2066.29 720.798 L 2020 1080 L -100 1080 Z" fill="#8fd6e7" stroke-width="0" transform="translate(7.78291 0)">
  <animate attributeName="d" dur="3.333333333333333s" repeatCount="indefinite" values="M-100 727.13C21.34 709.32 20.74 723.95 140.7 723.95S261.05 717.79 381.4 717.79S501.78 725.99 622.1 725.99S743.6 716.04 862.79 716.04S984.85 725.6 1103.49 725.6S1224.18 715.18 1344.19 715.18S1465.63 725.69 1584.89 725.69S1705.79 722.82 1825.59 722.82S1947.12 727.71 2066.29 727.71L2020 1080 L-100 1080 Z;M-100 714.63C22.22 715.62 21.39 719.14 140.7 719.14S262.83 727.48 381.4 727.48S502.38 717.77 622.1 717.77S742.47 714.51 862.79 714.51S985.07 713.42 1103.49 713.42S1224.74 710.2 1344.19 710.2S1465.55 719.53 1584.89 719.53S1706.14 716.1 1825.59 716.1S1946.3 719.65 2066.29 719.65L2020 1080 L-100 1080 Z;M-100 727.13C21.34 709.32 20.74 723.95 140.7 723.95S261.05 717.79 381.4 717.79S501.78 725.99 622.1 725.99S743.6 716.04 862.79 716.04S984.85 725.6 1103.49 725.6S1224.18 715.18 1344.19 715.18S1465.63 725.69 1584.89 725.69S1705.79 722.82 1825.59 722.82S1947.12 727.71 2066.29 727.71L2020 1080 L-100 1080 Z"></animate>
  <animateTransform attributeName="transform" type="translate" dur="3.333333333333333s" begin="-0.2564102564102564s" repeatCount="indefinite" values="0;10;0" calcMode="spline" keySplines="0.3 0 0.7 1;0.3 0 0.7 1"></animateTransform>
</path><path d="M -100 770.047 C 23.7606 779.175 23.2703 775.085 146.07 775.085 S 270.875 783.661 392.14 783.661 S 515.365 787.544 638.21 787.544 S 761.895 775.524 884.29 775.524 S 1008.22 787.12 1130.36 787.12 S 1253.95 772.747 1376.43 772.747 S 1499.95 782.24 1622.5 782.24 S 1745.8 778.07 1868.57 778.07 S 1993.34 785.618 2114.64 785.618 L 2020 1080 L -100 1080 Z" fill="#8ad1e4" stroke-width="0" transform="translate(4.47258 0)">
  <animate attributeName="d" dur="3.0555555555555554s" repeatCount="indefinite" values="M-100 769.07C23.7 779.75 23.16 774.17 146.07 774.17S271.11 783.26 392.14 783.26S515.3 788.92 638.21 788.92S761.65 773.46 884.29 773.46S1008.15 789.47 1130.36 789.47S1253.91 770.22 1376.43 770.22S1499.98 781.05 1622.5 781.05S1745.75 779.22 1868.57 779.22S1993.46 788.17 2114.64 788.17L2020 1080 L-100 1080 Z;M-100 775.36C24.09 776.05 23.87 780.06 146.07 780.06S269.6 785.84 392.14 785.84S515.72 780.06 638.21 780.06S763.23 786.75 884.29 786.75S1008.58 774.34 1130.36 774.34S1254.19 786.49 1376.43 786.49S1499.79 788.71 1622.5 788.71S1746.08 771.82 1868.57 771.82S1992.67 771.74 2114.64 771.74L2020 1080 L-100 1080 Z;M-100 769.07C23.7 779.75 23.16 774.17 146.07 774.17S271.11 783.26 392.14 783.26S515.3 788.92 638.21 788.92S761.65 773.46 884.29 773.46S1008.15 789.47 1130.36 789.47S1253.91 770.22 1376.43 770.22S1499.98 781.05 1622.5 781.05S1745.75 779.22 1868.57 779.22S1993.46 788.17 2114.64 788.17L2020 1080 L-100 1080 Z"></animate>
  <animateTransform attributeName="transform" type="translate" dur="3.0555555555555554s" begin="-0.4700854700854701s" repeatCount="indefinite" values="0;10;0" calcMode="spline" keySplines="0.3 0 0.7 1;0.3 0 0.7 1"></animateTransform>
</path><path d="M -100 835.986 C 27.1805 839.423 27.1844 849.974 151.69 849.974 S 277.953 829.662 403.38 829.662 S 530.47 852.1 655.07 852.1 S 782.078 836.122 906.76 836.122 S 1033.09 847.651 1158.45 847.651 S 1284.47 838.227 1410.14 838.227 S 1537.39 841.666 1661.83 841.666 S 1787.93 842.534 1913.52 842.534 S 2040.24 837.851 2165.21 837.851 L 2020 1080 L -100 1080 Z" fill="#86cde2" stroke-width="0" transform="translate(9.96287 0)">
  <animate attributeName="d" dur="2.7777777777777777s" repeatCount="indefinite" values="M-100 832.35C26.25 839.96 27.31 857.11 151.69 857.11S278.33 830.01 403.38 830.01S530.15 850.65 655.07 850.65S781.85 835.18 906.76 835.18S1033.54 840.31 1158.45 840.31S1284.29 847.03 1410.14 847.03S1536.63 842.02 1661.83 842.02S1788.08 848.02 1913.52 848.02S2040.04 837.08 2165.21 837.08L2020 1080 L-100 1080 Z;M-100 838.72C27.88 839.02 27.09 844.61 151.69 844.61S277.67 829.4 403.38 829.4S530.71 853.19 655.07 853.19S782.25 836.83 906.76 836.83S1032.76 853.17 1158.45 853.17S1284.6 831.61 1410.14 831.61S1537.96 841.4 1661.83 841.4S1787.82 838.41 1913.52 838.41S2040.39 838.43 2165.21 838.43L2020 1080 L-100 1080 Z;M-100 832.35C26.25 839.96 27.31 857.11 151.69 857.11S278.33 830.01 403.38 830.01S530.15 850.65 655.07 850.65S781.85 835.18 906.76 835.18S1033.54 840.31 1158.45 840.31S1284.29 847.03 1410.14 847.03S1536.63 842.02 1661.83 842.02S1788.08 848.02 1913.52 848.02S2040.04 837.08 2165.21 837.08L2020 1080 L-100 1080 Z"></animate>
  <animateTransform attributeName="transform" type="translate" dur="2.7777777777777777s" begin="-0.641025641025641s" repeatCount="indefinite" values="0;10;0" calcMode="spline" keySplines="0.3 0 0.7 1;0.3 0 0.7 1"></animateTransform>
</path><path d="M -100 900.716 C 29.3735 897.032 29.0163 905.955 157.57 905.955 S 286.736 915.006 415.14 915.006 S 545.036 901.405 672.71 901.405 S 803.245 896.501 930.28 896.501 S 1060.5 917.664 1187.85 917.664 S 1317.94 904.826 1445.42 904.826 S 1575.56 911.741 1702.99 911.741 S 1833.39 897.048 1960.56 897.048 S 2089.84 912.209 2218.13 912.209 L 2020 1080 L -100 1080 Z" fill="#82c8df" stroke-width="0" transform="translate(5.40128 0)">
  <animate attributeName="d" dur="2.5s" repeatCount="indefinite" values="M-100 916.45C30.29 907.67 29.83 900.79 157.57 900.79S287.67 892.18 415.14 892.18S545.37 906.21 672.71 906.21S802.2 907.37 930.28 907.37S1060.44 912.97 1187.85 912.97S1317.52 901.52 1445.42 901.52S1576.2 920.4 1702.99 920.4S1833.5 897.63 1960.56 897.63S2091.36 909.04 2218.13 909.04L2020 1080 L-100 1080 Z;M-100 898.08C29.22 895.25 28.88 906.82 157.57 906.82S286.58 918.83 415.14 918.83S544.98 900.6 672.71 900.6S803.42 894.68 930.28 894.68S1060.51 918.45 1187.85 918.45S1318.01 905.38 1445.42 905.38S1575.45 910.29 1702.99 910.29S1833.37 896.95 1960.56 896.95S2089.59 912.74 2218.13 912.74L2020 1080 L-100 1080 Z;M-100 916.45C30.29 907.67 29.83 900.79 157.57 900.79S287.67 892.18 415.14 892.18S545.37 906.21 672.71 906.21S802.2 907.37 930.28 907.37S1060.44 912.97 1187.85 912.97S1317.52 901.52 1445.42 901.52S1576.2 920.4 1702.99 920.4S1833.5 897.63 1960.56 897.63S2091.36 909.04 2218.13 909.04L2020 1080 L-100 1080 Z"></animate>
  <animateTransform attributeName="transform" type="translate" dur="2.5s" begin="-0.7692307692307693s" repeatCount="indefinite" values="0;10;0" calcMode="spline" keySplines="0.3 0 0.7 1;0.3 0 0.7 1"></animateTransform>
</path><path d="M -100 958.506 C 32.8678 953.204 33.29 971.687 163.73 971.687 S 297.533 964.835 427.46 964.835 S 560.192 965.081 691.2 965.081 S 823.709 961.83 954.93 961.83 S 1088.51 977.413 1218.66 977.413 S 1351.45 961.973 1482.39 961.973 S 1615.35 976.415 1746.12 976.415 S 1879.32 952.152 2009.86 952.152 S 2142.74 970.464 2273.59 970.464 L 2020 1080 L -100 1080 Z" fill="#7fc3dc" stroke-width="0" transform="translate(4.75447 0)">
  <animate attributeName="d" dur="2.2222222222222223s" repeatCount="indefinite" values="M-100 956.1C32.61 955.49 33.31 968.13 163.73 968.13S297.61 965.74 427.46 965.74S559.82 964.13 691.2 964.13S823.15 958.39 954.93 958.39S1088.52 974.99 1218.66 974.99S1351.52 962.66 1482.39 962.66S1615.69 977.3 1746.12 977.3S1879.46 947.38 2009.86 947.38S2142.75 973.42 2273.59 973.42L2020 1080 L-100 1080 Z;M-100 964.5C33.51 947.51 33.24 980.55 163.73 980.55S297.34 962.58 427.46 962.58S561.12 967.45 691.2 967.45S825.1 970.4 954.93 970.4S1088.48 983.45 1218.66 983.45S1351.26 960.26 1482.39 960.26S1614.49 974.21 1746.12 974.21S1878.98 964.04 2009.86 964.04S2142.71 963.1 2273.59 963.1L2020 1080 L-100 1080 Z;M-100 956.1C32.61 955.49 33.31 968.13 163.73 968.13S297.61 965.74 427.46 965.74S559.82 964.13 691.2 964.13S823.15 958.39 954.93 958.39S1088.52 974.99 1218.66 974.99S1351.52 962.66 1482.39 962.66S1615.69 977.3 1746.12 977.3S1879.46 947.38 2009.86 947.38S2142.75 973.42 2273.59 973.42L2020 1080 L-100 1080 Z"></animate>
  <animateTransform attributeName="transform" type="translate" dur="2.2222222222222223s" begin="-0.8547008547008547s" repeatCount="indefinite" values="0;10;0" calcMode="spline" keySplines="0.3 0 0.7 1;0.3 0 0.7 1"></animateTransform>
</path><path d="M -100 1019.73 C 36.0937 1015.49 36.7483 1037.21 170.2 1037.21 S 306.062 1038.83 440.39 1038.83 S 577.044 1042.71 710.59 1042.71 S 846.633 1018.86 980.78 1018.86 S 1117.66 1044.37 1250.98 1044.37 S 1387.39 1022.64 1521.18 1022.64 S 1658.01 1035.37 1791.37 1035.37 S 1927.02 1017.54 2061.57 1017.54 L 2020 1080 L -100 1080 Z" fill="#7bbeda" stroke-width="0" transform="translate(9.17464 0)">
  <animate attributeName="d" dur="1.9444444444444444s" repeatCount="indefinite" values="M-100 1019.59C36.35 1013.74 36.78 1037.22 170.2 1037.22S305.82 1044.27 440.39 1044.27S576.9 1043.43 710.59 1043.43S846.88 1018.22 980.78 1018.22S1117.77 1043.88 1250.98 1043.88S1387.49 1026.91 1521.18 1026.91S1658.14 1041.07 1791.37 1041.07S1926.83 1015.46 2061.57 1015.46L2020 1080 L-100 1080 Z;M-100 1020.16C35.3 1020.9 36.65 1037.19 170.2 1037.19S306.81 1021.98 440.39 1021.98S577.49 1040.5 710.59 1040.5S845.87 1020.86 980.78 1020.86S1117.3 1045.89 1250.98 1045.89S1387.06 1009.42 1521.18 1009.42S1657.62 1017.72 1791.37 1017.72S1927.61 1023.97 2061.57 1023.97L2020 1080 L-100 1080 Z;M-100 1019.59C36.35 1013.74 36.78 1037.22 170.2 1037.22S305.82 1044.27 440.39 1044.27S576.9 1043.43 710.59 1043.43S846.88 1018.22 980.78 1018.22S1117.77 1043.88 1250.98 1043.88S1387.49 1026.91 1521.18 1026.91S1658.14 1041.07 1791.37 1041.07S1926.83 1015.46 2061.57 1015.46L2020 1080 L-100 1080 Z"></animate>
  <animateTransform attributeName="transform" type="translate" dur="1.9444444444444444s" begin="-0.8974358974358974s" repeatCount="indefinite" values="0;10;0" calcMode="spline" keySplines="0.3 0 0.7 1;0.3 0 0.7 1"></animateTransform>
</path><path d="M -100 1084.18 C 39.8345 1076.06 40.2342 1096.11 176.98 1096.11 S 316.067 1083.16 453.97 1083.16 S 593.643 1083.25 730.95 1083.25 S 870.8 1072.33 1007.94 1072.33 S 1146.78 1095.18 1284.92 1095.18 S 1424.49 1082.43 1561.91 1082.43 S 1701.21 1103.59 1838.89 1103.59 S 1978.91 1099.38 2115.88 1099.38 L 2020 1080 L -100 1080 Z" fill="#78b9d7" stroke-width="0" transform="translate(6.93563 0)">
  <animate attributeName="d" dur="1.6666666666666665s" repeatCount="indefinite" values="M-100 1085.49C39.9 1078.4 40.2 1097.43 176.98 1097.43S316.13 1086.15 453.97 1086.15S593.7 1080.01 730.95 1080.01S871.31 1073.85 1007.94 1073.85S1146.6 1090.92 1284.92 1090.92S1424.49 1087.35 1561.91 1087.35S1700.75 1105.66 1838.89 1105.66S1979.33 1105.84 2115.88 1105.84L2020 1080 L-100 1080 Z;M-100 1080.88C39.67 1070.2 40.32 1092.78 176.98 1092.78S315.91 1075.64 453.97 1075.64S593.5 1091.37 730.95 1091.37S869.52 1068.53 1007.94 1068.53S1147.24 1105.87 1284.92 1105.87S1424.48 1070.06 1561.91 1070.06S1702.36 1098.39 1838.89 1098.39S1977.85 1083.17 2115.88 1083.17L2020 1080 L-100 1080 Z;M-100 1085.49C39.9 1078.4 40.2 1097.43 176.98 1097.43S316.13 1086.15 453.97 1086.15S593.7 1080.01 730.95 1080.01S871.31 1073.85 1007.94 1073.85S1146.6 1090.92 1284.92 1090.92S1424.49 1087.35 1561.91 1087.35S1700.75 1105.66 1838.89 1105.66S1979.33 1105.84 2115.88 1105.84L2020 1080 L-100 1080 Z"></animate>
  <animateTransform attributeName="transform" type="translate" dur="1.6666666666666665s" begin="-0.8974358974358974s" repeatCount="indefinite" values="0;10;0" calcMode="spline" keySplines="0.3 0 0.7 1;0.3 0 0.7 1"></animateTransform>
</path><path d="M -100 1139.7 C 42.9162 1133.39 43.2656 1159.24 184.12 1159.24 S 327.033 1136.23 468.25 1136.23 S 611.031 1167.84 752.37 1167.84 S 895.726 1141.91 1036.49 1141.91 S 1179.95 1165.38 1320.62 1165.38 S 1463.08 1137.81 1604.74 1137.81 S 1746.99 1169.15 1888.87 1169.15 S 2032.07 1139.21 2172.99 1139.21 L 2020 1080 L -100 1080 Z" fill="#75b4d4" stroke-width="0" transform="translate(3.21079 0)">
  <animate attributeName="d" dur="1.3888888888888888s" repeatCount="indefinite" values="M-100 1160.77C42.53 1153.02 42.21 1158.58 184.12 1158.58S326.63 1137.28 468.25 1137.28S610.55 1159.7 752.37 1159.7S896.49 1139.76 1036.49 1139.76S1179.53 1170.28 1320.62 1170.28S1464.08 1146.55 1604.74 1146.55S1747.12 1157.41 1888.87 1157.41S2031.93 1132.78 2172.99 1132.78L2020 1080 L-100 1080 Z;M-100 1136.22C42.98 1130.14 43.44 1159.35 184.12 1159.35S327.1 1136.06 468.25 1136.06S611.11 1169.18 752.37 1169.18S895.6 1142.26 1036.49 1142.26S1180.02 1164.57 1320.62 1164.57S1462.92 1136.37 1604.74 1136.37S1746.97 1171.09 1888.87 1171.09S2032.09 1140.27 2172.99 1140.27L2020 1080 L-100 1080 Z;M-100 1160.77C42.53 1153.02 42.21 1158.58 184.12 1158.58S326.63 1137.28 468.25 1137.28S610.55 1159.7 752.37 1159.7S896.49 1139.76 1036.49 1139.76S1179.53 1170.28 1320.62 1170.28S1464.08 1146.55 1604.74 1146.55S1747.12 1157.41 1888.87 1157.41S2031.93 1132.78 2172.99 1132.78L2020 1080 L-100 1080 Z"></animate>
  <animateTransform attributeName="transform" type="translate" dur="1.3888888888888888s" begin="-0.8547008547008547s" repeatCount="indefinite" values="0;10;0" calcMode="spline" keySplines="0.3 0 0.7 1;0.3 0 0.7 1"></animateTransform>
</path><path d="M -100 1191.05 C 46.9235 1198.95 46.6198 1219.91 191.64 1219.91 S 338.71 1193.66 483.28 1193.66 S 630.08 1222.31 774.92 1222.31 S 921.764 1197.73 1066.56 1197.73 S 1213.81 1220.63 1358.2 1220.63 S 1504.9 1217.69 1649.84 1217.69 S 1796.48 1214.62 1941.48 1214.62 S 2088.06 1201.98 2233.12 1201.98 L 2020 1080 L -100 1080 Z" fill="#72b0d1" stroke-width="0" transform="translate(8.98083 0)">
  <animate attributeName="d" dur="1.1111111111111112s" repeatCount="indefinite" values="M-100 1186.63C46.07 1201.28 46.11 1215.72 191.64 1215.72S338.12 1195.13 483.28 1195.13S630.51 1217.29 774.92 1217.29S921.77 1204.23 1066.56 1204.23S1213.95 1201.14 1358.2 1201.14S1504.65 1216.07 1649.84 1216.07S1796.22 1230.32 1941.48 1230.32S2088.38 1195.12 2233.12 1195.12L2020 1080 L-100 1080 Z;M-100 1194.35C47.56 1197.22 47 1223.04 191.64 1223.04S339.15 1192.56 483.28 1192.56S629.76 1226.06 774.92 1226.06S921.76 1192.89 1066.56 1192.89S1213.7 1235.17 1358.2 1235.17S1505.08 1218.9 1649.84 1218.9S1796.67 1202.91 1941.48 1202.91S2087.82 1207.1 2233.12 1207.1L2020 1080 L-100 1080 Z;M-100 1186.63C46.07 1201.28 46.11 1215.72 191.64 1215.72S338.12 1195.13 483.28 1195.13S630.51 1217.29 774.92 1217.29S921.77 1204.23 1066.56 1204.23S1213.95 1201.14 1358.2 1201.14S1504.65 1216.07 1649.84 1216.07S1796.22 1230.32 1941.48 1230.32S2088.38 1195.12 2233.12 1195.12L2020 1080 L-100 1080 Z"></animate>
  <animateTransform attributeName="transform" type="translate" dur="1.1111111111111112s" begin="-0.7692307692307693s" repeatCount="indefinite" values="0;10;0" calcMode="spline" keySplines="0.3 0 0.7 1;0.3 0 0.7 1"></animateTransform>
</path><path d="M -100 1249.22 C 50.9729 1256.43 50.8434 1286.72 199.57 1286.72 S 350.136 1258.7 499.13 1258.7 S 650.422 1286.6 798.7 1286.6 S 950.171 1262.13 1098.26 1262.13 S 1248.33 1289.01 1397.83 1289.01 S 1549.11 1275.36 1697.39 1275.36 S 1848.4 1295.01 1996.96 1295.01 S 2148.57 1251.86 2296.52 1251.86 L 2020 1080 L -100 1080 Z" fill="#6fabce" stroke-width="0" transform="translate(0.372264 0)">
  <animate attributeName="d" dur="0.8333333333333333s" repeatCount="indefinite" values="M-100 1246.49C50.09 1252.38 50.12 1280.29 199.57 1280.29S349.8 1262.65 499.13 1262.65S650.16 1295.42 798.7 1295.42S950.33 1262.67 1098.26 1262.67S1248.2 1298.6 1397.83 1298.6S1549.31 1291.02 1697.39 1291.02S1847.88 1296.59 1996.96 1296.59S2148.54 1258.03 2296.52 1258.03L2020 1080 L-100 1080 Z;M-100 1251.28C51.64 1259.49 51.39 1291.57 199.57 1291.57S350.39 1255.71 499.13 1255.71S650.62 1279.94 798.7 1279.94S950.05 1261.72 1098.26 1261.72S1248.43 1281.77 1397.83 1281.77S1548.96 1263.53 1697.39 1263.53S1848.8 1293.82 1996.96 1293.82S2148.6 1247.19 2296.52 1247.19L2020 1080 L-100 1080 Z;M-100 1246.49C50.09 1252.38 50.12 1280.29 199.57 1280.29S349.8 1262.65 499.13 1262.65S650.16 1295.42 798.7 1295.42S950.33 1262.67 1098.26 1262.67S1248.2 1298.6 1397.83 1298.6S1549.31 1291.02 1697.39 1291.02S1847.88 1296.59 1996.96 1296.59S2148.54 1258.03 2296.52 1258.03L2020 1080 L-100 1080 Z"></animate>
  <animateTransform attributeName="transform" type="translate" dur="0.8333333333333333s" begin="-0.641025641025641s" repeatCount="indefinite" values="0;10;0" calcMode="spline" keySplines="0.3 0 0.7 1;0.3 0 0.7 1"></animateTransform>
</path><path d="M -100 1308.6 C 54.9974 1323.01 54.5593 1342.17 207.93 1342.17 S 363.509 1308.62 515.87 1308.62 S 670.205 1355.78 823.8 1355.78 S 979.17 1325.63 1131.73 1325.63 S 1286.11 1351.03 1439.66 1351.03 S 1595.05 1325.36 1747.6 1325.36 S 1902.85 1347.64 2055.53 1347.64 L 2020 1080 L -100 1080 Z" fill="#6ca6cb" stroke-width="0" transform="translate(5.67038 0)">
  <animate attributeName="d" dur="0.5555555555555556s" repeatCount="indefinite" values="M-100 1320.46C55.1 1320.87 55.32 1342.13 207.93 1342.13S363.5 1319.7 515.87 1319.7S669.94 1349.84 823.8 1349.84S978.52 1326.64 1131.73 1326.64S1286.85 1360.77 1439.66 1360.77S1595.37 1322.48 1747.6 1322.48S1901.7 1359.13 2055.53 1359.13L2020 1080 L-100 1080 Z;M-100 1306.58C54.98 1323.37 54.43 1342.18 207.93 1342.18S363.51 1306.74 515.87 1306.74S670.25 1356.79 823.8 1356.79S979.28 1325.46 1131.73 1325.46S1285.98 1349.37 1439.66 1349.37S1595 1325.85 1747.6 1325.85S1903.05 1345.69 2055.53 1345.69L2020 1080 L-100 1080 Z;M-100 1320.46C55.1 1320.87 55.32 1342.13 207.93 1342.13S363.5 1319.7 515.87 1319.7S669.94 1349.84 823.8 1349.84S978.52 1326.64 1131.73 1326.64S1286.85 1360.77 1439.66 1360.77S1595.37 1322.48 1747.6 1322.48S1901.7 1359.13 2055.53 1359.13L2020 1080 L-100 1080 Z"></animate>
  <animateTransform attributeName="transform" type="translate" dur="0.5555555555555556s" begin="-0.47008547008547014s" repeatCount="indefinite" values="0;10;0" calcMode="spline" keySplines="0.3 0 0.7 1;0.3 0 0.7 1"></animateTransform>
</path><path d="M -100 1379.95 C 59.712 1371.08 60.2491 1418.71 216.78 1418.71 S 376.428 1384.3 533.56 1384.3 S 692.205 1413.14 850.34 1413.14 S 1008.96 1385.91 1167.13 1385.91 S 1327.44 1415.75 1483.91 1415.75 S 1643.2 1371.91 1800.69 1371.91 S 1960.31 1416.79 2117.47 1416.79 L 2020 1080 L -100 1080 Z" fill="#6aa1c8" stroke-width="0" transform="translate(4.18453 0)">
  <animate attributeName="d" dur="0.2777777777777778s" repeatCount="indefinite" values="M-100 1385.68C60.18 1366.58 60.2 1419.61 216.78 1419.61S376.22 1383.52 533.56 1383.52S692.15 1416.2 850.34 1416.2S1009.03 1386.48 1167.13 1386.48S1327.56 1419.93 1483.91 1419.93S1643.01 1370.64 1800.69 1370.64S1960.58 1418.81 2117.47 1418.81L2020 1080 L-100 1080 Z;M-100 1365.85C58.56 1382.17 60.37 1416.49 216.78 1416.49S376.94 1386.23 533.56 1386.23S692.34 1405.6 850.34 1405.6S1008.8 1384.51 1167.13 1384.51S1327.15 1405.45 1483.91 1405.45S1643.67 1375.03 1800.69 1375.03S1959.63 1411.81 2117.47 1411.81L2020 1080 L-100 1080 Z;M-100 1385.68C60.18 1366.58 60.2 1419.61 216.78 1419.61S376.22 1383.52 533.56 1383.52S692.15 1416.2 850.34 1416.2S1009.03 1386.48 1167.13 1386.48S1327.56 1419.93 1483.91 1419.93S1643.01 1370.64 1800.69 1370.64S1960.58 1418.81 2117.47 1418.81L2020 1080 L-100 1080 Z"></animate>
  <animateTransform attributeName="transform" type="translate" dur="0.2777777777777778s" begin="-0.25641025641025644s" repeatCount="indefinite" values="0;10;0" calcMode="spline" keySplines="0.3 0 0.7 1;0.3 0 0.7 1"></animateTransform>
</path></g>
</svg>